# xmcd
#
# Track frame offsets:
#  150
#  13459
#  24241
#  35714
#  48882
#  61325
#  73045
#  82953
#  94728
#  106555
#  118062
#  129234
#  140069
#  150330
#  161065
#  174228
#  186757
#  200762
#  211030
#  222856
#  234398
#  245925
#  258984
#  270781
#  281603
#  293375
#  303936
#  315160
#  325692
#  336932
#
# Disc length: 4630 seconds
#
# Revision: 0
# Processed by: cddbd v1.5.2PL0 Copyright (c) Steve Scherf et al.
# Submitted via: AltoMP3_Maker 3.0
#
DISCID=9b12141e
DTITLE=Various Artist - Decca Hillbilly, Vol. 5
DYEAR=1900
DGENRE=
TTITLE0=Billy Brown - Drunk-Dunk Again
TTITLE1=Webb Pierce - There Stands the Glass
TTITLE2=Billy Mize - Who Will buy the Wine
TTITLE3=Goldie Hill - Liquor and Women
TTITLE4=Margie Collie - Dim Lights, Thick Smoke
TTITLE5=Vernon Claud - Jungle of Cement and Stone
TTITLE6=Rex Prophet - Wild Fire
TTITLE7=Leon Payne - You Haven't Got a Heart
TTITLE8=Autry Inman - It Hurts Too Much to Cry
TTITLE9=Charlie Adams - I Hope You're Happy Now
TTITLE10=Jim Eanes - When the One That You Love Is in Love with You
TTITLE11=Jimmy Logsdon - These Lonesome Blues
TTITLE12=Johnny Nelms - I've Been Lonesome Before
TTITLE13=Glenn Douglas - you Sure Look Lonesome
TTITLE14=Red Foley -- Stranded in Deep Water
TTITLE15=Arlie Duff - So Close and Yet So Far
TTITLE16=Ernest Tubb - I'm with a Crowd but So Alone
TTITLE17=Jimmy and Johnny - Imagination
TTITLE18=Gene Stewart - Someday You'll Know
TTITLE19=Hank Locklin - Let Me Confess
TTITLE20=Rex Allen - That's What Makes the Juke Box Play
TTITLE21=Billy Brown - High Heels but No Soul
TTITLE22=Vernon Claud - Foolish Pride
TTITLE23=Leon Payne - A Lifetime to Regret
TTITLE24=Webb Pierce - Don't Throw Your Life Away
TTITLE25=Autry Inman - Reality
TTITLE26=Stan Hardin - Hungry Heart
TTITLE27=Wanda Jackson - Tears at the Grand Ole Op'ry
TTITLE28=Alvadean Coker - Insufficient Love
TTITLE29=Charlie Aldrich - I Saw My Old Flame Last Night
EXTD=
EXTT0=
EXTT1=
EXTT2=
EXTT3=
EXTT4=
EXTT5=
EXTT6=
EXTT7=
EXTT8=
EXTT9=
EXTT10=
EXTT11=
EXTT12=
EXTT13=
EXTT14=
EXTT15=
EXTT16=
EXTT17=
EXTT18=
EXTT19=
EXTT20=
EXTT21=
EXTT22=
EXTT23=
EXTT24=
EXTT25=
EXTT26=
EXTT27=
EXTT28=
EXTT29=
PLAYORDER=
